<svg xmlns="http://www.w3.org/2000/svg" width="48" height="48" fill="none"><path fill="url(#a)" stroke="#000" stroke-width="3" d="M24 44c11.046 0 20-8.954 20-20S35.046 4 24 4 4 12.954 4 24s8.954 20 20 20Z" opacity=".9"/><mask id="b" width="40" height="40" x="4" y="4" maskUnits="userSpaceOnUse" style="mask-type:luminance"><path fill="#fff" d="M24 44c11.046 0 20-8.954 20-20S35.046 4 24 4 4 12.954 4 24s8.954 20 20 20"/></mask><g stroke="#fff" stroke-width="2" mask="url(#b)"><path d="m42.2 27.14-.223-.035-.2-.09-.2-.126-.208-.164-.2-.197-.2-.234-.2-.27-.208-.303-.2-.338-.2-.367-.2-.396-.208-.418-.2-.445-.2-.457-.2-.47-.201-.479-.207-.48-.2-.476-.2-.463-.201-.45-.207-.426-.2-.396-.2-.36-.2-.315-.208-.27-.2-.216-.2-.158-.2-.09-.208-.026-.2.048-.2.123-.2.2-.208.28-.2.353-.2.431-.2.509-.208.58-.2.65-.2.71-.2.77-.201.82-.207.863-.2.895-.2.923-.201.937-.207.943-.2.933-.2.917-.2.889-.208.85-.2.794-.2.737-.2.66-.208.58-.2.489-.2.389-.2.28-.208.17-.2.052-.2-.068-.2-.193-.208-.312-.2-.438-.2-.556-.2-.673-.201-.782-.207-.885-.2-.982-.2-1.065-.201-1.142-.207-1.2-.2-1.256-.2-1.287-.2-1.31-.208-1.316-.2-1.31-.2-1.288-.2-1.248-.208-1.198-.2-1.13-.2-1.052-.2-.959-.208-.856-.2-.743-.2-.621-.2-.49-.208-.354-.2-.215-.2-.071-.2.07-.201.216-.207.354-.2.49-.2.62-.201.744" opacity=".9"/><path d="m23 13.494-.207.856-.2.96-.2 1.052-.2 1.13-.208 1.197-.2 1.248-.2 1.288-.2 1.31-.208 1.316-.2 1.31-.2 1.287-.2 1.255-.208 1.2-.2 1.143-.2 1.065-.2.982-.208.885-.2.782-.2.673-.2.556-.201.438-.207.312-.2.193-.2.068-.201-.051-.207-.171-.2-.28-.2-.39-.201-.489-.207-.579-.2-.66-.2-.737-.2-.795-.208-.85-.2-.888-.2-.917-.2-.933-.208-.943-.2-.937-.2-.923-.2-.895-.208-.863-.2-.82-.2-.77-.2-.71-.201-.65-.207-.58-.2-.509-.2-.43-.201-.355-.207-.28-.2-.2-.2-.122-.201-.048-.207.026-.2.09-.2.158-.2.215-.208.27-.2.316-.2.36-.2.396-.208.425-.2.45-.2.464-.2.477-.208.48-.2.479-.2.47-.2.457-.201.444-.207.418-.2.396-.2.367-.201.338-.207.302-.2.27-.2.236-.201.196-.207.164-.2.125-.2.09-.641.126" opacity=".9"/></g><defs><linearGradient id="a" x1="4" x2="4004" y1="4" y2="4004" gradientUnits="userSpaceOnUse"><stop stop-color="#9333EA"/><stop offset="1" stop-color="#6D28D9"/></linearGradient></defs></svg>